<svg
  class="img-fluid"
  id="outputsvg"
  xmlns="http://www.w3.org/2000/svg"
  width="500"
  height="500"
  viewBox="0 0 2400 2400"
  style="width:100%; height:auto;"
>
  <g
    id="l11SJsT6Dl9F9QcSUTCR23P"
    fill="rgb(14,117,200)"
    style="transform: none;"
  >
    <g style="transform: none;">
      <path
        id="ptl7bfFpn"
        d="M1000 2244 c-156 -28 -261 -71 -402 -167 -161 -108 -316 -301 -387 -480 -54 -136 -73 -238 -74 -397 -1 -200 23 -306 108 -485 172 -359 555 -595 965 -595 61 0 132 5 158 11 160 36 192 46 299 95 274 125 495 390 572 689 30 112 44 256 37 352 -7 77 -43 247 -64 298 -34 82 -100 201 -144 260 -172 232 -402 376 -668 420 -104 18 -299 17 -400 -1z m324 -128 c48 -8 90 -17 92 -19 2 -2 -3 -23 -11 -48 -8 -24 -21 -84 -30 -134 -24 -141 -78 -202 -139 -158 -36 25 -41 52 -27 147 6 44 11 114 11 154 0 39 3 72 8 72 4 0 47 -7 96 -14z m-209 -51 c-1 -27 -6 -94 -13 -147 -20 -158 7 -232 101 -277 25 -12 63 -21 89 -21 114 0 173 65 208 230 11 52 20 97 20 101 0 14 43 49 60 49 20 0 53 -43 69 -90 11 -33 56 -214 67 -270 2 -14 9 -38 14 -55 5 -16 18 -64 29 -105 11 -41 32 -120 47 -175 15 -55 30 -116 34 -135 5 -19 20 -79 34 -134 32 -123 35 -230 7 -284 -44 -85 -125 -142 -231 -163 -54 -10 -67 -9 -127 10 -73 24 -98 42 -155 112 -20 25 -57 61 -82 80 -25 19 -46 37 -46 40 0 3 32 9 71 12 78 7 89 11 70 30 -19 18 -270 14 -345 -7 -60 -16 -133 -49 -236 -107 -51 -29 -60 -31 -125 -26 -38 3 -81 12 -95 19 -78 44 -105 67 -142 122 -40 58 -42 63 -42 141 0 68 4 88 28 133 34 66 192 320 207 332 3 3 12 16 19 30 7 14 44 71 82 128 37 56 68 105 68 107 0 2 23 38 50 80 28 42 74 115 102 163 70 118 86 133 138 129 23 -2 25 -6 25 -52z m-305 -40 c0 -2 -14 -28 -32 -57 -17 -29 -36 -62 -42 -73 -6 -11 -42 -72 -80 -136 l-69 -117 -61 29 c-34 16 -69 29 -79 29 -50 0 159 214 279 287 67 40 84 48 84 38z m1104 -243 c117 -143 188 -298 215 -470 l8 -49 -51 25 c-28 14 -75 33 -105 42 -52 15 -55 18 -67 60 -7 25 -26 90 -44 145 -37 118 -89 288 -100 330 -5 17 -12 41 -16 55 -7 21 0 18 49 -24 31 -26 81 -78 111 -114z m-1496 -221 c45 -17 122 -64 122 -75 0 -2 -24 -44 -52 -93 -47 -78 -134 -247 -161 -309 -5 -12 -8 -57 -6 -100 8 -168 105 -284 292 -350 86 -30 213 -9 290 48 126 94 227 114 327 65 44 -22 47 -24 158 -147 29 -32 69 -66 90 -75 20 -10 50 -23 66 -31 63 -30 200 -6 281 49 56 39 118 112 146 172 45 96 48 203 9 340 -6 22 -15 54 -19 70 -5 17 -12 38 -16 48 -9 22 9 22 55 -1 68 -33 160 -109 160 -132 0 -5 -11 -49 -24 -98 -41 -153 -164 -364 -254 -436 -13 -10 -34 -29 -45 -41 -84 -84 -217 -151 -427 -216 -60 -19 -347 -19 -410 -1 -25 7 -61 18 -80 23 -119 34 -265 116 -350 195 -25 23 -54 51 -66 61 -41 36 -136 175 -174 256 -97 204 -116 451 -53 676 37 131 45 137 141 102z"
      ></path>
      <path
        id="pPSgVuvh4"
        d="M1140 1525 c-71 -16 -87 -23 -94 -41 -4 -11 0 -13 22 -7 15 5 56 8 92 7 51 -1 77 -7 118 -29 57 -30 94 -68 86 -90 -16 -40 86 -20 105 22 16 36 14 44 -12 38 -16 -4 -30 1 -48 18 -39 39 -101 73 -144 81 -22 4 -47 8 -55 10 -8 2 -40 -2 -70 -9z"
      ></path>
      <path
        id="p1AdDDDFu8"
        d="M892 1373 c-23 -9 -72 -124 -72 -168 0 -46 23 -85 49 -85 44 0 103 100 105 176 1 62 -35 96 -82 77z"
      ></path>
      <path
        id="peSNJJylv"
        d="M1540 1185 c-31 -18 -86 -19 -145 -3 -58 16 -68 4 -27 -33 27 -25 41 -29 88 -29 54 0 95 16 122 49 26 32 6 41 -38 16z"
      ></path>
    </g>
  </g>
  <g
    id="l5luXcIEstNxOoga6P1uAdI"
    fill="rgb(157,206,248)"
    style="transform: none;"
  >
    <g style="transform: none;">
      <path
        id="p2dVRP19J"
        d="M1175 2143 c16 -38 16 -122 1 -224 -19 -127 -12 -164 37 -196 39 -27 67 -29 107 -8 43 22 68 73 85 171 28 159 52 204 109 204 26 1 28 2 13 11 -41 24 -226 59 -312 59 -41 0 -46 -2 -40 -17z"
      ></path>
      <path
        id="p9wRtwP9q"
        d="M870 2103 c-38 -13 -176 -86 -218 -115 -71 -48 -169 -144 -229 -226 -30 -41 -53 -75 -51 -77 1 -1 28 -10 58 -18 30 -9 81 -32 112 -51 l57 -34 78 131 c43 73 80 136 82 142 2 5 12 21 21 35 9 14 36 61 60 105 23 44 50 88 58 98 12 14 13 17 1 16 -8 0 -21 -3 -29 -6z"
      ></path>
      <path
        id="pmMnFMpU3"
        d="M1660 2031 c0 -5 6 -14 14 -20 14 -11 40 -88 92 -266 14 -49 34 -115 44 -145 11 -30 33 -102 50 -160 18 -58 33 -110 35 -117 2 -6 19 -14 37 -18 50 -11 126 -45 187 -83 l54 -34 -6 84 c-11 139 -59 291 -130 408 -81 135 -214 272 -327 336 -47 27 -50 28 -50 15z"
      ></path>
      <path
        id="p189EDVo34"
        d="M1025 648 c-40 -14 -65 -37 -65 -59 0 -18 -11 -69 -31 -152 -6 -20 -7 -42 -4 -47 3 -5 27 3 53 20 25 16 49 27 53 25 3 -2 14 -34 24 -70 9 -36 21 -68 26 -70 4 -3 24 19 43 49 19 29 39 57 45 61 6 3 24 -15 43 -44 17 -28 34 -51 37 -51 7 0 31 192 31 246 0 34 -15 51 -73 83 -42 23 -129 27 -182 9z"
      ></path>
    </g>
  </g>
</svg>

